<svg width="114" height="40" viewBox="0 0 114 40" fill="none" xmlns="http://www.w3.org/2000/svg">
<path d="M38.4205 32.6364C38.4205 33.5568 38.2543 34.3523 37.9219 35.0227C37.5895 35.6932 37.1335 36.2102 36.554 36.5739C35.9744 36.9375 35.3125 37.1193 34.5682 37.1193C33.8239 37.1193 33.1619 36.9375 32.5824 36.5739C32.0028 36.2102 31.5469 35.6932 31.2145 35.0227C30.8821 34.3523 30.7159 33.5568 30.7159 32.6364C30.7159 31.7159 30.8821 30.9205 31.2145 30.25C31.5469 29.5795 32.0028 29.0625 32.5824 28.6989C33.1619 28.3352 33.8239 28.1534 34.5682 28.1534C35.3125 28.1534 35.9744 28.3352 36.554 28.6989C37.1335 29.0625 37.5895 29.5795 37.9219 30.25C38.2543 30.9205 38.4205 31.7159 38.4205 32.6364ZM37.3977 32.6364C37.3977 31.8807 37.2713 31.2429 37.0185 30.723C36.7685 30.2031 36.429 29.8097 36 29.5426C35.5739 29.2756 35.0966 29.142 34.5682 29.142C34.0398 29.142 33.5611 29.2756 33.1321 29.5426C32.706 29.8097 32.3665 30.2031 32.1136 30.723C31.8636 31.2429 31.7386 31.8807 31.7386 32.6364C31.7386 33.392 31.8636 34.0298 32.1136 34.5497C32.3665 35.0696 32.706 35.4631 33.1321 35.7301C33.5611 35.9972 34.0398 36.1307 34.5682 36.1307C35.0966 36.1307 35.5739 35.9972 36 35.7301C36.429 35.4631 36.7685 35.0696 37.0185 34.5497C37.2713 34.0298 37.3977 33.392 37.3977 32.6364ZM46.7259 28.2727V37H45.669V29.2102H41.2713V37H40.2145V28.2727H46.7259ZM48.3803 29.2102V28.2727H54.9258V29.2102H52.1815V37H51.1246V29.2102H48.3803ZM63.5572 32.6364C63.5572 33.5568 63.391 34.3523 63.0586 35.0227C62.7262 35.6932 62.2702 36.2102 61.6907 36.5739C61.1112 36.9375 60.4492 37.1193 59.7049 37.1193C58.9606 37.1193 58.2987 36.9375 57.7191 36.5739C57.1396 36.2102 56.6836 35.6932 56.3512 35.0227C56.0188 34.3523 55.8526 33.5568 55.8526 32.6364C55.8526 31.7159 56.0188 30.9205 56.3512 30.25C56.6836 29.5795 57.1396 29.0625 57.7191 28.6989C58.2987 28.3352 58.9606 28.1534 59.7049 28.1534C60.4492 28.1534 61.1112 28.3352 61.6907 28.6989C62.2702 29.0625 62.7262 29.5795 63.0586 30.25C63.391 30.9205 63.5572 31.7159 63.5572 32.6364ZM62.5344 32.6364C62.5344 31.8807 62.408 31.2429 62.1552 30.723C61.9052 30.2031 61.5657 29.8097 61.1367 29.5426C60.7106 29.2756 60.2333 29.142 59.7049 29.142C59.1765 29.142 58.6978 29.2756 58.2688 29.5426C57.8427 29.8097 57.5032 30.2031 57.2504 30.723C57.0004 31.2429 56.8754 31.8807 56.8754 32.6364C56.8754 33.392 57.0004 34.0298 57.2504 34.5497C57.5032 35.0696 57.8427 35.4631 58.2688 35.7301C58.6978 35.9972 59.1765 36.1307 59.7049 36.1307C60.2333 36.1307 60.7106 35.9972 61.1367 35.7301C61.5657 35.4631 61.9052 35.0696 62.1552 34.5497C62.408 34.0298 62.5344 33.392 62.5344 32.6364ZM65.3342 37V28.2727H68.3853C68.9933 28.2727 69.4947 28.3778 69.8896 28.5881C70.2844 28.7955 70.5785 29.0753 70.7717 29.4276C70.9648 29.777 71.0614 30.1648 71.0614 30.5909C71.0614 30.9659 70.9947 31.2756 70.8612 31.5199C70.7305 31.7642 70.5572 31.9574 70.3413 32.0994C70.1282 32.2415 69.8967 32.3466 69.6467 32.4148V32.5C69.9137 32.517 70.1822 32.6108 70.4521 32.7812C70.7219 32.9517 70.9478 33.196 71.1296 33.5142C71.3114 33.8324 71.4023 34.2216 71.4023 34.6818C71.4023 35.1193 71.3029 35.5128 71.104 35.8622C70.9052 36.2116 70.5913 36.4886 70.1623 36.6932C69.7333 36.8977 69.1751 37 68.4876 37H65.3342ZM66.391 36.0625H68.4876C69.1779 36.0625 69.668 35.929 69.9577 35.6619C70.2504 35.392 70.3967 35.0653 70.3967 34.6818C70.3967 34.3864 70.3214 34.1136 70.1708 33.8636C70.0202 33.6108 69.8058 33.4091 69.5273 33.2585C69.2489 33.1051 68.9194 33.0284 68.5387 33.0284H66.391V36.0625ZM66.391 32.108H68.3512C68.6694 32.108 68.9563 32.0455 69.212 31.9205C69.4705 31.7955 69.6751 31.6193 69.8256 31.392C69.979 31.1648 70.0558 30.8977 70.0558 30.5909C70.0558 30.2074 69.9222 29.8821 69.6552 29.6151C69.3881 29.3452 68.9648 29.2102 68.3853 29.2102H66.391V32.108ZM73.9229 31.9375H76.4116C77.0366 31.9375 77.5636 32.0398 77.9925 32.2443C78.4244 32.4489 78.7511 32.7372 78.9727 33.1094C79.1971 33.4815 79.3093 33.9205 79.3093 34.4261C79.3093 34.9318 79.1971 35.3778 78.9727 35.7642C78.7511 36.1506 78.4244 36.4531 77.9925 36.6719C77.5636 36.8906 77.0366 37 76.4116 37H73.1388V28.2727H74.1957V36.0795H76.4116C76.8093 36.0795 77.146 36 77.4215 35.8409C77.6999 35.679 77.9102 35.4716 78.0522 35.2188C78.1971 34.9631 78.2695 34.6932 78.2695 34.4091C78.2695 33.9915 78.109 33.6321 77.788 33.331C77.467 33.027 77.0082 32.875 76.4116 32.875H73.9229V31.9375ZM81.2184 28.2727V37H80.1616V28.2727H81.2184ZM83.3342 28.2727H84.3739V35.142H84.4592L89.2319 28.2727H90.2546V37H89.1978V30.1477H89.1126L84.3569 37H83.3342V28.2727ZM87.6296 26.0909H88.5671C88.5671 26.5511 88.408 26.9276 88.0898 27.2202C87.7717 27.5128 87.3398 27.6591 86.7944 27.6591C86.2575 27.6591 85.8299 27.5128 85.5117 27.2202C85.1964 26.9276 85.0387 26.5511 85.0387 26.0909H85.9762C85.9762 26.3125 86.0373 26.5071 86.1594 26.6747C86.2844 26.8423 86.4961 26.9261 86.7944 26.9261C87.0927 26.9261 87.3058 26.8423 87.4336 26.6747C87.5643 26.5071 87.6296 26.3125 87.6296 26.0909ZM95.7443 37V28.2727H96.767L100.688 34.9716H100.773V28.2727H101.812V37H100.79L96.8864 30.3523H96.8011V37H95.7443ZM102.886 34.358V33.4886H106.602V34.358H102.886ZM104.744 32.7386C104.324 32.7386 103.96 32.6548 103.653 32.4872C103.349 32.3196 103.114 32.0852 102.946 31.7841C102.781 31.483 102.699 31.1307 102.699 30.7273V30.1477C102.699 29.7443 102.781 29.392 102.946 29.0909C103.111 28.7898 103.345 28.5554 103.649 28.3878C103.953 28.2202 104.313 28.1364 104.727 28.1364C105.148 28.1364 105.509 28.2202 105.81 28.3878C106.114 28.5554 106.347 28.7898 106.509 29.0909C106.673 29.392 106.756 29.7443 106.756 30.1477V30.7273C106.756 31.1307 106.675 31.483 106.513 31.7841C106.351 32.0852 106.119 32.3196 105.818 32.4872C105.517 32.6548 105.159 32.7386 104.744 32.7386ZM104.744 31.8864C105.077 31.8864 105.324 31.7812 105.486 31.571C105.651 31.358 105.733 31.0767 105.733 30.7273V30.1477C105.733 29.8068 105.651 29.5312 105.486 29.321C105.321 29.1108 105.068 29.0057 104.727 29.0057C104.386 29.0057 104.134 29.1108 103.969 29.321C103.804 29.5312 103.722 29.8068 103.722 30.1477V30.7273C103.722 31.0767 103.804 31.358 103.969 31.571C104.136 31.7812 104.395 31.8864 104.744 31.8864ZM111.714 28.2727V37H110.657V29.3807H110.606L108.475 30.7955V29.7216L110.657 28.2727H111.714Z" fill="#0A0B0E" fill-opacity="0.815686"/>
<line x1="26" y1="33.5" y2="33.5" stroke="#091D9E" stroke-opacity="0.815686"/>
<line x1="0.5" y1="1" x2="0.500001" y2="33" stroke="#091D9E" stroke-opacity="0.815686"/>
<line x1="4.37114e-08" y1="0.5" x2="112" y2="0.50001" stroke="#091D9E" stroke-opacity="0.815686"/>
<line x1="111.5" y1="1" x2="111.5" y2="23" stroke="#091D9E" stroke-opacity="0.815686"/>
</svg>
