<svg width="25" height="24" viewBox="0 0 25 24" fill="none" xmlns="http://www.w3.org/2000/svg">
<path d="M9.5 22.5C10.0523 22.5 10.5 22.0523 10.5 21.5C10.5 20.9477 10.0523 20.5 9.5 20.5C8.94772 20.5 8.5 20.9477 8.5 21.5C8.5 22.0523 8.94772 22.5 9.5 22.5Z" stroke="#454545" stroke-width="2" stroke-linecap="round" stroke-linejoin="round"/>
<path d="M19.5 22.5C20.0523 22.5 20.5 22.0523 20.5 21.5C20.5 20.9477 20.0523 20.5 19.5 20.5C18.9477 20.5 18.5 20.9477 18.5 21.5C18.5 22.0523 18.9477 22.5 19.5 22.5Z" stroke="#454545" stroke-width="2" stroke-linecap="round" stroke-linejoin="round"/>
<path d="M1.5 1.5H5.5L8.18 15.7823C8.27144 16.2734 8.52191 16.7145 8.88755 17.0285C9.25318 17.3424 9.7107 17.5092 10.18 17.4996H19.9C20.3693 17.5092 20.8268 17.3424 21.1925 17.0285C21.5581 16.7145 21.8086 16.2734 21.9 15.7823L23.5 6.8332H6.5" stroke="#454545" stroke-width="2" stroke-linecap="round" stroke-linejoin="round"/>
</svg>
