<svg width="25" height="24" viewBox="0 0 25 24" fill="none" xmlns="http://www.w3.org/2000/svg">
<rect x="1.5" y="1" width="22" height="22" rx="3" stroke="#454545" stroke-width="2"/>
<path d="M15.5779 6.50136C15.7368 6.34241 15.9255 6.21632 16.1332 6.1303C16.3409 6.04428 16.5635 6 16.7883 6C17.013 6 17.2356 6.04428 17.4433 6.1303C17.651 6.21632 17.8397 6.34241 17.9986 6.50136C18.1576 6.66031 18.2837 6.84901 18.3697 7.05669C18.4557 7.26436 18.5 7.48695 18.5 7.71174C18.5 7.93653 18.4557 8.15912 18.3697 8.3668C18.2837 8.57447 18.1576 8.76317 17.9986 8.92212L9.82855 17.0922L6.5 18L7.40779 14.6714L15.5779 6.50136Z" stroke="#3F3F3F" stroke-width="2" stroke-linecap="round" stroke-linejoin="round"/>
</svg>
