<svg width="21" height="18" viewBox="0 0 21 18" fill="none" xmlns="http://www.w3.org/2000/svg">
<path d="M18.112 2.82611C17.6722 2.40569 17.15 2.07219 16.5752 1.84465C16.0005 1.61711 15.3844 1.5 14.7623 1.5C14.1401 1.5 13.5241 1.61711 12.9493 1.84465C12.3746 2.07219 11.8524 2.40569 11.4126 2.82611L10.4998 3.69821L9.58699 2.82611C8.69858 1.9773 7.49364 1.50044 6.23725 1.50044C4.98085 1.50044 3.77591 1.9773 2.88751 2.82611C1.9991 3.67492 1.5 4.82616 1.5 6.02656C1.5 7.22696 1.9991 8.37819 2.88751 9.227L3.80029 10.0991L10.4998 16.5L17.1992 10.0991L18.112 9.227C18.5521 8.80679 18.9011 8.30785 19.1393 7.75871C19.3774 7.20957 19.5 6.62097 19.5 6.02656C19.5 5.43214 19.3774 4.84355 19.1393 4.2944C18.9011 3.74526 18.5521 3.24633 18.112 2.82611Z" stroke="#0C0C0C" stroke-opacity="0.94" stroke-width="2" stroke-linecap="round" stroke-linejoin="round"/>
</svg>
