<svg width="33" height="32" viewBox="0 0 33 32" fill="none" xmlns="http://www.w3.org/2000/svg">
<path d="M9.4375 28C8.71563 28 8.09744 27.7387 7.58294 27.216C7.06844 26.6933 6.81163 26.0658 6.8125 25.3333V8H6.5C5.94772 8 5.5 7.55228 5.5 7C5.5 6.44772 5.94772 6 6.5 6H12.0625V5C12.0625 4.44772 12.5102 4 13.0625 4H18.9375C19.4898 4 19.9375 4.44772 19.9375 5V6H25.5C26.0523 6 26.5 6.44772 26.5 7C26.5 7.55228 26.0523 8 25.5 8H25.1875V25.3333C25.1875 26.0667 24.9303 26.6947 24.4158 27.2173C23.9013 27.74 23.2835 28.0009 22.5625 28H9.4375ZM23.2158 8H9V26L23.2158 26V8ZM12.5 21.6667C12.5 22.219 12.9477 22.6667 13.5 22.6667C14.0523 22.6667 14.5 22.219 14.5 21.6667V11.6667C14.5 11.1144 14.0523 10.6667 13.5 10.6667C12.9477 10.6667 12.5 11.1144 12.5 11.6667V21.6667ZM17.5 21.6667C17.5 22.219 17.9477 22.6667 18.5 22.6667C19.0523 22.6667 19.5 22.219 19.5 21.6667V11.6667C19.5 11.1144 19.0523 10.6667 18.5 10.6667C17.9477 10.6667 17.5 11.1144 17.5 11.6667V21.6667Z" fill="#454545"/>
</svg>
